<svg xmlns="http://www.w3.org/2000/svg" width="82" height="52" viewBox="0 0 82 52">
  <g fill="#2D6BDC" fill-rule="evenodd">
    <path d="M7.42819058 51.1073511C9.13158324 51.1073511 10.0943155 49.5343855 10.0943155 47.6395659 10.0943155 45.9799589 9.23039674 44.2460663 7.44065628 44.2460663 5.66321431 44.2460663 4.77451613 45.8933177 4.77451613 47.7262071 4.77451613 49.5095219 5.73741565 51.1073511 7.42819058 51.1073511zM7.36662217 51.9865767C5.16961809 51.9865767 3.62674416 50.2773951 3.62674416 47.7509182 3.62674416 45.1007334 5.26826437 43.3668407 7.49006303 43.3668407 9.76110122 43.3668407 11.2299258 45.1130889 11.2299258 47.5899912 11.2299258 50.4631857 9.48959214 51.9865767 7.36662217 51.9865767zM14.8205043 43.5030566L15.9807267 43.5030566 17.2765517 47.6148548C17.6345606 48.7418011 17.9431628 49.7573951 18.1652651 50.7356175L18.1900445 50.7356175C18.4244605 49.7697507 18.7701557 48.7169375 19.1404783 47.6272103L20.5474305 43.5030566 21.6953393 43.5030566 18.720749 51.8503608 17.5358991 51.8503608 14.8205043 43.5030566z"/>
    <polygon points="26.755 47.937 26.755 50.946 30.359 50.946 30.359 51.85 25.681 51.85 25.681 43.503 30.174 43.503 30.174 44.407 26.755 44.407 26.755 47.045 29.989 47.045 29.989 47.937"/>
    <path d="M37.0106711 47.4165562C38.1585799 47.4165562 38.8869114 46.7848988 38.8869114 45.8313875 38.8869114 44.7538633 38.1091732 44.2832854 36.9737301 44.2707774 36.4553393 44.2707774 36.0851687 44.320352 35.9121691 44.3700792L35.9121691 47.4165562 37.0106711 47.4165562zM36.8996808 43.4411264C38.0474527 43.4411264 38.7880979 43.651628 39.3064887 44.1222059 39.726218 44.493787 39.9607861 45.0633617 39.9607861 45.7073746 39.9607861 46.8096099 39.2695476 47.5404165 38.3931479 47.8375594L38.3931479 47.8747785C39.0349796 48.0977882 39.4176159 48.6922265 39.6150756 49.5590965 39.8865999 50.723262 40.0840749 51.5283544 40.2567553 51.8503608L39.1459548 51.8503608C39.0103522 51.6149956 38.8250389 50.896697 38.5906229 49.8563919 38.3437412 48.704582 37.8995365 48.2712232 36.9243081 48.2338516L35.9121691 48.2338516 35.9121691 51.8503608 34.8384464 51.8503608 34.8384464 43.6144089C35.3816166 43.5030566 36.1591876 43.4411264 36.8996808 43.4411264zM46.3407783 51.082335C47.4392955 51.082335 48.0811272 50.5004048 48.0811272 49.6580933 48.0811272 48.8778645 47.6369225 48.4321502 46.5137931 47.9986389 45.1559284 47.5155529 44.3168042 46.8096099 44.3168042 45.6332414 44.3168042 44.3327075 45.3905117 43.3668407 47.0074045 43.3668407 47.8591769 43.3668407 48.4760771 43.5648343 48.8463997 43.7754884L48.5502633 44.654714C48.2787542 44.5061426 47.7232703 44.2584218 46.9702963 44.2584218 45.8348684 44.2584218 45.4029774 44.9396539 45.4029774 45.5093811 45.4029774 46.2896099 45.9089025 46.6735465 47.0566593 47.1192608 48.4637634 47.6642769 49.179614 48.3455089 49.179614 49.571452 49.179614 50.8596304 48.2293474 51.9742212 46.2667594 51.9742212 45.4645458 51.9742212 44.5881309 51.738856 44.1439414 51.4415606L44.4154505 50.5374714C44.8967482 50.8347668 45.6003003 51.082335 46.3407783 51.082335z"/>
    <polygon points="54.807 47.937 54.807 50.946 58.411 50.946 58.411 51.85 53.733 51.85 53.733 43.503 58.226 43.503 58.226 44.407 54.807 44.407 54.807 47.045 58.041 47.045 58.041 47.937"/>
    <path d="M66.148947 45.9799589C65.9637705 45.4349428 65.8403448 44.9396539 65.717056 44.4567204L65.6921246 44.4567204C65.5688357 44.9520094 65.4330812 45.4598064 65.2725473 45.9676034L64.45802 48.3825755 66.9634742 48.3825755 66.148947 45.9799589zM63.3718317 51.8503608L62.2610159 51.8503608 65.087538 43.5030566 66.383363 43.5030566 69.2221835 51.8503608 68.07429 51.8503608 67.1857286 49.2247345 64.2357505 49.2247345 63.3718317 51.8503608zM75.3062217 51.082335C76.4041157 51.082335 77.0471483 50.5004048 77.0471483 49.6580933 77.0471483 48.8778645 76.6017427 48.4321502 75.4792062 47.9986389 74.1213719 47.5155529 73.2822021 46.8096099 73.2822021 45.6332414 73.2822021 44.3327075 74.3559399 43.3668407 75.9723767 43.3668407 76.8252132 43.3668407 77.4408973 43.5648343 77.811828 43.7754884L77.5153875 44.654714C77.2447905 44.5061426 76.6883945 44.2584218 75.9358917 44.2584218 74.8002966 44.2584218 74.3682536 44.9396539 74.3682536 45.5093811 74.3682536 46.2896099 74.8743307 46.6735465 76.0225284 47.1192608 77.4287356 47.6642769 78.1447534 48.3455089 78.1447534 49.571452 78.1447534 50.8596304 77.1946237 51.9742212 75.2321724 51.9742212 74.429974 51.9742212 73.5535743 51.738856 73.1093697 51.4415606L73.3808636 50.5374714C73.8621765 50.8347668 74.5657286 51.082335 75.3062217 51.082335zM54.9962477 34.6914286C55.6367112 33.2170021 56.5819763 31.1426459 56.6769892 30.9043825 56.9095658 30.3241302 56.9291917 29.1948959 57.8875306 29.3248577 58.8785539 29.4595483 58.4559362 27.3276855 58.7671227 26.9513758 61.3177271 23.8792725 56.1395806 23.8661543 56.0348535 23.3894749 55.9250793 22.8947961 53.6087542 21.7376474 53.1254802 21.601279 52.231142 21.3448636 50.0163515 21.379337 50.1212458 21.4549956 49.8279978 21.3415078 48.1767482 20.4506894 48.0260957 20.1482077 47.9507086 19.9936873 47.7821023 19.8408448 46.9956837 19.6831211 46.1226437 19.5072455 46.6845124 17.3407568 47.0087575 17.143526 47.5558954 16.8148079 49.8509377 17.6958639 50.1376641 17.9818715 50.643726 17.2832502 49.9377568 16.7507422 50.7764553 16.0817131 51.4120541 15.5739161 51.9444308 14.8802523 51.8887912 14.821083 52.3130812 14.4890549 53.1222877 14.1964881 53.3302369 13.7904946 53.5186059 13.422315 54.9520096 12.0547867 55.5825918 12.1221778 55.8840489 12.1534022 56.8537894 11.9627457 56.989848 11.6208483 57.1552466 11.2017213 56.3984872 10.4505661 56.316548 10.0166278 55.0683055 11.1540534 55.7218428 9.30986096 54.5195106 9.5514802 54.229607 9.60900205 54.3163956 9.74871106 54.1575491 9.91308536 53.8642859 10.2122265 53.4711754 7.15501085 52.7110716 7.89795952 52.8389058 7.99328014 51.8346719 8.04752244 51.0532851 8.25791728 53.9199407 5.60667996 57.7482644 3.98601584 61.9451016 3.98601584 65.973211 3.98601584 69.6604594 5.47847228 72.4845643 7.94068524 72.2831368 7.87658903 72.071828 7.81577237 71.8767853 7.79275447 70.7940934 7.6744007 68.2173415 9.56462892 68.4253059 9.88678791 68.5335447 10.0495148 68.513782 10.5344007 68.9462811 10.325638 69.5342974 10.0396456 71.9047571 10.2155213 71.5738079 10.2253904 71.8849944 10.6017765 68.2402814 11.719479 67.9110044 11.9808214 67.517894 12.2931264 65.7191843 13.330274 65.4882647 13.9466471 65.4473712 14.1422458 65.6947089 14.5959073 65.8436893 14.4594779 66.9724435 14.9953112 67.7045755 13.9252766 67.6537853 13.8907574 67.8667664 13.6836574 68.6612421 13.5340945 68.9167738 13.4568343 69.1445009 13.3877958 69.7997104 13.1412496 70.0209158 13.330274 70.0013052 13.373015 70.6974082 13.7428419 70.974238 14.0206125 71.3281424 14.3739959 71.5803448 14.5909651 71.6671335 14.6517818 71.8849944 14.4085151 73.1758027 12.6629534 73.4772599 12.9637419 73.7245977 13.2119202 75.4872785 13.7609176 75.4331439 14.0995048 75.3676229 14.5104253 74.7025473 14.4118099 74.4815091 14.2803074 73.704987 13.8135125 72.6680534 15.1120023 72.9613014 15.2879085 72.9924657 15.3043825 73.7098517 15.3930067 73.7296144 15.3898035 73.9801294 15.3750073 74.4634186 15.6166266 74.6108636 15.8072983 74.4044346 15.8730419 74.2929881 16.4433793 74.1456952 16.7393018 73.8098813 16.5091229 72.9678383 16.6374069 72.4550723 16.542071 72.1618242 16.4894456 71.9652614 16.2970959 71.6721502 16.2461484 71.1905636 16.1590496 71.4739303 16.4729715 71.2870968 16.6619654 70.8760326 17.0745791 70.0830923 16.2905368 69.621238 16.1918451 69.0953982 16.0817131 69.2919611 15.3898035 68.8365221 15.2879085 67.9847497 15.0922793 65.9174194 15.8007392 65.6963812 15.9601408 65.2245087 16.2970959 65.3898921 16.413787 65.1278235 16.8427222 64.7052058 17.5331065 64.0139674 17.8404693 63.6699444 18.6541038 63.5077382 19.0403285 63.6174972 20.9946377 63.6880349 21.0307891 63.6634075 21.0736521 64.3678717 22.0746025 64.7888172 22.4953007 65.2474638 22.9556586 68.30901 23.1281784 68.8365221 22.7320387 69.0659214 23.0081314 69.4164813 24.4480845 69.5884016 25.0101848 69.7489507 25.5263714 69.8701112 25.8862071 70.0013052 26.3760047 70.1306748 26.862599 69.6130441 27.3984629 69.5572525 27.9523262 69.5572525 27.9918334 70.2027175 31.2840481 70.323878 31.4254503 70.8989878 32.0780053 73.113611 30.2486242 73.5870189 29.6979642 73.7803741 29.4777002 75.4725324 26.3053799 75.3807119 25.7071282 75.2365962 24.7620065 76.0407861 24.1407216 76.6564702 23.524318 76.9377086 23.2448695 77.4713014 22.8979994 77.8604746 22.5035377 77.9060808 22.1946495 77.9425658 21.8839308 77.9684093 21.5700088 77.2356693 21.8313054 76.5409344 21.3759812 76.0483871 21.0307891 76.1350237 20.9700792 73.609974 17.4493634 73.8884761 16.8904664 73.9556693 16.9940393 76.4618684 18.889164 78.0216166 19.5087709 78.0307379 19.7159167 78.0337783 19.9230625 78.0337783 20.1317336 78.0337783 20.61665 78.0124802 21.0965327 77.9684093 21.5700088 78.0732885 21.5321795 78.187304 22.1699384 77.8604746 22.5035377 76.714238 30.2847756 70.0143789 36.2758346 61.9451016 36.2758346 61.9451016 36.2758346 57.1011272 35.7071751 54.9962477 34.6914286L54.9962477 34.6914286zM45.8540078 20.1350895C46.6729588 20.702071 47.6641342 21.270883 47.8196515 21.3611851 47.9279055 21.4237254 50.4210156 23.0345204 50.1098443 23.4158639 49.8690434 23.7101085 49.6691361 23.9582869 49.5707786 24.3362746 49.551168 24.4003403 49.4970486 24.829428 49.5463033 25.0890466 49.6052874 25.4128835 50.1556025 26.2593136 50.3702558 26.5601173 50.5750278 26.8526841 51.5464405 27.819161 51.77736 28.04934 52.5079718 28.7841126 52.421168 30.8386389 52.4538524 31.8839777 52.4702707 32.3113875 52.3998699 32.7815078 52.4833445 33.1808507 48.4683241 30.2452684 45.8556952 25.4900675 45.8540078 20.1350895L45.8540078 20.1350895 45.8540078 20.1350895zM41.8946422 20.1317336C41.8946422 31.2231857 50.8878865 40.2486712 61.9451016 40.2486712 72.9990026 40.2486712 81.9939192 31.2231857 81.9939192 20.1317336 81.9939192 9.03701731 72.9990026.0132707539 61.9451016.0132707539 50.8878865.0132707539 41.8946422 9.03701731 41.8946422 20.1317336L41.8946422 20.1317336z"/>
    <polygon points="77 22 79 21 78.5 22.5 77.5 22.5"/>
    <path d="M77.8604746 22.5035377C77.9060808 22.1946495 77.9425658 21.8839308 77.9684093 21.5700088 78.0732885 21.5321795 78.1812384 21.4795541 78.2876529 21.4106072 78.4107898 21.8017131 78.187304 22.1699384 77.8604746 22.5035377M64.882158 6.65862364C64.4922247 7.11062247 62.9869151 8.08204165 62.7050686 8.15600704 62.195647 8.28421473 59.9597256 10.5376803 59.2044865 9.57942505 58.9834483 9.30000704 59.0504894 7.08434028 58.8720171 6.68164154 58.6541713 6.19675565 59.3289915 5.91732238 60.0547386 5.85650572 60.7868554 5.79568906 61.4715721 5.89102493 62.2202744 5.80555823 62.7575006 5.74146201 63.4881275 5.57051335 64.0188168 5.62805045 64.6626248 5.69707363 65.0755284 6.43672749 64.882158 6.65862364M38.5717723 20.9600117L23.6302595 23.2616486 24.3620875 28.0447639 29.7246047 27.2172485 29.2218721 27.9117512C26.8201112 31.2311176 22.9473823 33.2128835 18.8668409 33.2128835 17.7389989 33.2128835 16.6148053 33.0604987 15.5187356 32.7635084 8.70440489 30.910484 4.66109344 23.8431211 6.50466444 17.0059372 8.01164627 11.4153347 13.0911161 7.51049927 18.8569444 7.51049927 19.9851057 7.51049927 21.1115643 7.66123673 22.2076492 7.95929481 24.7109752 8.63971839 26.9174045 10.0382881 28.5920653 12.0103526L34.1598257 8.43754532C31.6060289 5.11145204 28.1151761 2.77316046 24.0557657 1.6693083 22.4210864 1.22612614 20.7420171 1.00107246 19.065228 1.00107246 10.4836559 1.00107246 2.92305525 6.81395248.678468669 15.1362253-2.06565814 25.3134292 3.95406007 35.8359167 14.0985577 38.592115 15.7314127 39.0355412 17.4083537 39.260839 19.0857508 39.260839 25.2539933 39.260839 31.0669633 36.2377002 34.637475 31.1757466L35.1461364 30.4543972 36.0996107 36.6864652 40.8656136 35.9556586 38.5717723 20.9600117"/>
    <path d="M78.2876529,21.4106072 C78.1812384,21.4795541 78.0732885,21.5321795 77.9684093,21.5700088 C77.9425658,21.8839308 77.9060808,22.1946495 77.8604746,22.5035377 C78.187304,22.1699384 78.4107898,21.8017131 78.2876529,21.4106072 L78.2876529,21.4106072 L78.2876529,21.4106072 Z"/>
  </g>
</svg>
